<mxfile host="app.diagrams.net" modified="2023-05-20T12:48:39.476Z" agent="Mozilla/5.0 (Macintosh; Intel Mac OS X 10_15_7) AppleWebKit/537.36 (KHTML, like Gecko) Chrome/113.0.0.0 Safari/537.36" etag="Jb8ARbTH1Qbaqf30e5sZ" version="21.3.2" type="device">
  <diagram name="Page-1" id="3vtaRXY53Gg06wUA3ExV">
    <mxGraphModel dx="983" dy="389" grid="1" gridSize="10" guides="1" tooltips="1" connect="1" arrows="1" fold="1" page="1" pageScale="1" pageWidth="827" pageHeight="1169" math="0" shadow="0">
      <root>
        <mxCell id="0" />
        <mxCell id="1" parent="0" />
        <mxCell id="EHmLowiq_X_WFSyRjSDT-1" value="T&lt;sub&gt;1&lt;/sub&gt;" style="ellipse;whiteSpace=wrap;html=1;aspect=fixed;" parent="1" vertex="1">
          <mxGeometry x="120" y="120" width="40" height="40" as="geometry" />
        </mxCell>
        <mxCell id="EHmLowiq_X_WFSyRjSDT-2" value="T&lt;sub&gt;2&lt;/sub&gt;" style="ellipse;whiteSpace=wrap;html=1;aspect=fixed;" parent="1" vertex="1">
          <mxGeometry x="240" y="120" width="40" height="40" as="geometry" />
        </mxCell>
        <mxCell id="EHmLowiq_X_WFSyRjSDT-3" value="T&lt;span style=&quot;font-size: 10px;&quot;&gt;4&lt;/span&gt;" style="ellipse;whiteSpace=wrap;html=1;aspect=fixed;" parent="1" vertex="1">
          <mxGeometry x="120" y="240" width="40" height="40" as="geometry" />
        </mxCell>
        <mxCell id="EHmLowiq_X_WFSyRjSDT-4" value="T&lt;span style=&quot;font-size: 10px;&quot;&gt;3&lt;/span&gt;" style="ellipse;whiteSpace=wrap;html=1;aspect=fixed;" parent="1" vertex="1">
          <mxGeometry x="240" y="240" width="40" height="40" as="geometry" />
        </mxCell>
        <mxCell id="EHmLowiq_X_WFSyRjSDT-5" value="" style="endArrow=classic;html=1;rounded=0;exitX=1;exitY=0.5;exitDx=0;exitDy=0;entryX=0;entryY=0.5;entryDx=0;entryDy=0;" parent="1" source="EHmLowiq_X_WFSyRjSDT-1" target="EHmLowiq_X_WFSyRjSDT-2" edge="1">
          <mxGeometry width="50" height="50" relative="1" as="geometry">
            <mxPoint x="390" y="620" as="sourcePoint" />
            <mxPoint x="440" y="570" as="targetPoint" />
          </mxGeometry>
        </mxCell>
        <mxCell id="EHmLowiq_X_WFSyRjSDT-6" value="" style="endArrow=classic;html=1;rounded=0;exitX=0;exitY=0.5;exitDx=0;exitDy=0;entryX=1;entryY=0.5;entryDx=0;entryDy=0;" parent="1" source="EHmLowiq_X_WFSyRjSDT-4" target="EHmLowiq_X_WFSyRjSDT-3" edge="1">
          <mxGeometry width="50" height="50" relative="1" as="geometry">
            <mxPoint x="170" y="150" as="sourcePoint" />
            <mxPoint x="250" y="150" as="targetPoint" />
          </mxGeometry>
        </mxCell>
        <mxCell id="EHmLowiq_X_WFSyRjSDT-7" value="" style="endArrow=classic;html=1;rounded=0;exitX=1;exitY=1;exitDx=0;exitDy=0;entryX=0;entryY=0;entryDx=0;entryDy=0;" parent="1" source="EHmLowiq_X_WFSyRjSDT-1" target="EHmLowiq_X_WFSyRjSDT-4" edge="1">
          <mxGeometry width="50" height="50" relative="1" as="geometry">
            <mxPoint x="250" y="270" as="sourcePoint" />
            <mxPoint x="170" y="270" as="targetPoint" />
          </mxGeometry>
        </mxCell>
        <mxCell id="EHmLowiq_X_WFSyRjSDT-8" value="" style="endArrow=classic;html=1;rounded=0;exitX=0.5;exitY=1;exitDx=0;exitDy=0;" parent="1" source="EHmLowiq_X_WFSyRjSDT-1" target="EHmLowiq_X_WFSyRjSDT-3" edge="1">
          <mxGeometry width="50" height="50" relative="1" as="geometry">
            <mxPoint x="164" y="164" as="sourcePoint" />
            <mxPoint x="256" y="256" as="targetPoint" />
          </mxGeometry>
        </mxCell>
        <mxCell id="EHmLowiq_X_WFSyRjSDT-10" value="" style="endArrow=classic;html=1;rounded=0;exitX=0.5;exitY=1;exitDx=0;exitDy=0;entryX=0.5;entryY=0;entryDx=0;entryDy=0;" parent="1" source="EHmLowiq_X_WFSyRjSDT-2" target="EHmLowiq_X_WFSyRjSDT-4" edge="1">
          <mxGeometry width="50" height="50" relative="1" as="geometry">
            <mxPoint x="164" y="164" as="sourcePoint" />
            <mxPoint x="256" y="256" as="targetPoint" />
          </mxGeometry>
        </mxCell>
        <mxCell id="EHmLowiq_X_WFSyRjSDT-11" value="" style="endArrow=classic;html=1;rounded=0;exitX=0;exitY=1;exitDx=0;exitDy=0;entryX=1;entryY=0;entryDx=0;entryDy=0;" parent="1" source="EHmLowiq_X_WFSyRjSDT-2" target="EHmLowiq_X_WFSyRjSDT-3" edge="1">
          <mxGeometry width="50" height="50" relative="1" as="geometry">
            <mxPoint x="270" y="170" as="sourcePoint" />
            <mxPoint x="270" y="250" as="targetPoint" />
          </mxGeometry>
        </mxCell>
        <mxCell id="EHmLowiq_X_WFSyRjSDT-12" value="" style="curved=1;endArrow=classic;html=1;rounded=0;exitX=0;exitY=0;exitDx=0;exitDy=0;entryX=1;entryY=0;entryDx=0;entryDy=0;" parent="1" source="EHmLowiq_X_WFSyRjSDT-1" target="EHmLowiq_X_WFSyRjSDT-1" edge="1">
          <mxGeometry width="50" height="50" relative="1" as="geometry">
            <mxPoint x="80" y="100" as="sourcePoint" />
            <mxPoint x="130" y="50" as="targetPoint" />
            <Array as="points">
              <mxPoint x="110" y="100" />
              <mxPoint x="170" y="100" />
            </Array>
          </mxGeometry>
        </mxCell>
        <mxCell id="EHmLowiq_X_WFSyRjSDT-13" value="" style="curved=1;endArrow=classic;html=1;rounded=0;exitX=0;exitY=0;exitDx=0;exitDy=0;entryX=1;entryY=0;entryDx=0;entryDy=0;" parent="1" edge="1">
          <mxGeometry width="50" height="50" relative="1" as="geometry">
            <mxPoint x="246" y="126" as="sourcePoint" />
            <mxPoint x="274" y="126" as="targetPoint" />
            <Array as="points">
              <mxPoint x="230" y="100" />
              <mxPoint x="290" y="100" />
            </Array>
          </mxGeometry>
        </mxCell>
        <mxCell id="EHmLowiq_X_WFSyRjSDT-14" value="" style="curved=1;endArrow=classic;html=1;rounded=0;exitX=0;exitY=1;exitDx=0;exitDy=0;entryX=1;entryY=1;entryDx=0;entryDy=0;" parent="1" source="EHmLowiq_X_WFSyRjSDT-3" target="EHmLowiq_X_WFSyRjSDT-3" edge="1">
          <mxGeometry width="50" height="50" relative="1" as="geometry">
            <mxPoint x="116" y="326" as="sourcePoint" />
            <mxPoint x="144" y="326" as="targetPoint" />
            <Array as="points">
              <mxPoint x="110" y="300" />
              <mxPoint x="140" y="300" />
              <mxPoint x="170" y="300" />
            </Array>
          </mxGeometry>
        </mxCell>
        <mxCell id="EHmLowiq_X_WFSyRjSDT-15" value="" style="curved=1;endArrow=classic;html=1;rounded=0;exitX=0;exitY=1;exitDx=0;exitDy=0;entryX=1;entryY=1;entryDx=0;entryDy=0;" parent="1" edge="1">
          <mxGeometry width="50" height="50" relative="1" as="geometry">
            <mxPoint x="245" y="274" as="sourcePoint" />
            <mxPoint x="273" y="274" as="targetPoint" />
            <Array as="points">
              <mxPoint x="229" y="300" />
              <mxPoint x="259" y="300" />
              <mxPoint x="289" y="300" />
            </Array>
          </mxGeometry>
        </mxCell>
      </root>
    </mxGraphModel>
  </diagram>
</mxfile>
